<?xml version="1.0" encoding="iso-8859-1"?>
<!-- Generator: Adobe Illustrator 19.0.0, SVG Export Plug-In . SVG Version: 6.00 Build 0)  -->
<svg version="1.1" id="Capa_1" xmlns="http://www.w3.org/2000/svg" xmlns:xlink="http://www.w3.org/1999/xlink" x="0px" y="0px"
	 viewBox="0 0 44.625 44.625" style="enable-background:new 0 0 44.625 44.625;" xml:space="preserve">
<g>
	<g>
		<path d="M44.624,19.108c-0.011-3.88-2.919-6.202-6.304-6.202c-1.535,0-3.178,0.451-4.4,1.605v-1.443h-3.096v1.398
			c-1.143-1.041-2.391-1.562-3.963-1.562c-1.996,0-3.359,0.869-4.052,1.616c-0.127,0.141-0.231,0.268-0.335,0.395
			c-0.994-1.455-3.072-1.998-5.74-1.998c-1.999,0-3.476,0.358-4.608,1.373c-1.397-0.853-3.071-1.386-5.405-1.386
			c-3.245,0-5.728,1.375-5.728,4.055c0,2.263,1.882,3.558,4.422,3.742l2.727,0.209c1.051,0.08,1.87,0.356,1.87,1.292
			c0,1.117-1.269,1.697-3.026,1.697c-2.055,0-3.51-0.58-4.838-1.697L0,24.026c1.963,1.582,4.262,2.356,6.745,2.356
			c2.102,0,3.938-0.51,5.092-1.457c0.913,0.914,2.403,1.479,4.354,1.479c2.09,0,3.153-0.414,3.788-1.328h0.058v1.342h3.083v-1.33
			c0.762,0.66,2.008,1.307,3.739,1.307c1.572,0,3.004-0.623,3.963-1.535v1.352c0,1.849-1.444,2.854-3.512,2.854
			c-1.178,0-2.24-0.545-2.99-1.188l-2.388,1.637c1.362,1.314,3.36,2.206,5.323,2.206c3.513,0,6.664-1.823,6.664-5.798v-1.109
			c1.315,1.202,3.129,1.595,4.815,1.595c2.056,0,4.076-0.808,5.588-2.31l-2.077-1.512c-0.902,0.808-2.392,1.338-3.57,1.338
			c-2.112,0-3.579-0.809-3.579-2.957h9.459C44.555,20.968,44.634,19.779,44.624,19.108z M8.651,18.393L6.11,18.231
			c-1.548-0.104-2.021-0.671-2.021-1.247c0-0.912,0.658-1.582,2.632-1.582c1.664,0,2.899,0.496,4.111,1.224l1.305-1.316l1.293,1.328
			c0.809-0.751,1.848-1.224,3.453-1.224c2.217,0,3.153,0.437,3.153,1.685v1.352h-4.27c-1.641,0-2.888,0.449-3.719,1.165
			C11.331,18.923,10.222,18.473,8.651,18.393z M20.038,21.743c0,2.053-0.878,2.285-3.453,2.285c-2.091,0-2.898-0.771-2.898-1.662
			c0-0.96,0.842-1.583,2.656-1.583h3.695V21.743z M30.201,22.746c-0.438,0.476-1.246,1.027-2.494,1.027
			c-1.281,0-2.229-0.554-2.666-1.027c-0.555-0.599-0.59-0.936-0.625-3.094c-0.021-2.172,0.07-2.518,0.625-3.119
			c0.438-0.474,1.385-1.029,2.666-1.029c1.248,0,2.057,0.556,2.494,1.029c0.555,0.603,0.623,0.97,0.623,3.119
			C30.824,21.777,30.755,22.147,30.201,22.746z M35.098,18.647c0-2.299,1.674-3.419,3.557-3.419c1.883,0,3.58,1.131,3.58,3.419
			H35.098z"/>
	</g>
</g>
<g>
</g>
<g>
</g>
<g>
</g>
<g>
</g>
<g>
</g>
<g>
</g>
<g>
</g>
<g>
</g>
<g>
</g>
<g>
</g>
<g>
</g>
<g>
</g>
<g>
</g>
<g>
</g>
<g>
</g>
</svg>
